# xmcd
#
# Track frame offsets: 
#        150
#        21284
#        43184
#        63376
#        89342
#        110936
#        129491
#        153428
#        170689
#        184537
#        206508
#        224920
#        246820
#        267649
#        283563
#
# Disc length: 4165 seconds
#
# Revision: 0
# Processed by: cddbd v1.5.1PL0 Copyright (c) Steve Scherf et al.
# Submitted via: ExactAudioCopy v0.95a5
#
DISCID=ec10430f
DTITLE=Luna Amara - Asfalt
DYEAR=2004
DGENRE=
TTITLE0=Gri Dorian
TTITLE1=Oras
TTITLE2=Asfalt
TTITLE3=Ego nr
TTITLE4=Rosu aprins
TTITLE5=Your Garden
TTITLE6=Mara (acustic)
TTITLE7=Dizident
TTITLE8=Antidot
TTITLE9=Folclor
TTITLE10=Simplify My Spider
TTITLE11=Stare de gratie
TTITLE12=Tanagra Noise
TTITLE13=Unfed
TTITLE14=Ciudat (acustic)
EXTD=
EXTT0=
EXTT1=
EXTT2=
EXTT3=
EXTT4=
EXTT5=
EXTT6=
EXTT7=
EXTT8=
EXTT9=
EXTT10=
EXTT11=
EXTT12=
EXTT13=
EXTT14=
PLAYORDER=
